<?xml version="1.0" encoding="utf-8" standalone="no"?>
<!DOCTYPE svg PUBLIC "-//W3C//DTD SVG 1.1//EN"
  "http://www.w3.org/Graphics/SVG/1.1/DTD/svg11.dtd">
<!-- Created with matplotlib (http://matplotlib.org/) -->
<svg height="204pt" version="1.1" viewBox="0 0 525 204" width="525pt" xmlns="http://www.w3.org/2000/svg" xmlns:xlink="http://www.w3.org/1999/xlink">
 <defs>
  <style type="text/css">
*{stroke-linecap:butt;stroke-linejoin:round;stroke-miterlimit:100000;}
  </style>
 </defs>
 <g id="figure_1">
  <g id="patch_1">
   <path d="M 0 204.620625 
L 525.6995 204.620625 
L 525.6995 0 
L 0 0 
z
" style="fill:#ffffff;"/>
  </g>
  <g id="axes_1">
   <g id="patch_2">
    <path d="M 37.91875 181.806875 
L 453.37475 181.806875 
L 453.37475 13.006875 
L 37.91875 13.006875 
z
" style="fill:#ffffff;"/>
   </g>
   <g id="PathCollection_1">
    <path clip-path="url(#p88f1d83c96)" d="M 451.29747 110.910875 
L 451.29747 106.789659 
L 447.684929 110.910875 
z
" style="fill:#0000a4;"/>
   </g>
   <g id="PathCollection_2">
    <path clip-path="url(#p88f1d83c96)" d="M 442.98835 110.910875 
L 447.14291 110.910875 
L 447.684929 110.910875 
L 451.29747 106.789659 
L 451.29747 104.158875 
L 451.29747 98.083062 
L 447.742814 104.158875 
L 447.14291 104.796458 
L 442.98835 108.403502 
L 439.19441 110.910875 
z
" style="fill:#0000f1;"/>
   </g>
   <g id="PathCollection_3">
    <path clip-path="url(#p88f1d83c96)" d="M 426.37011 110.910875 
L 430.52467 110.910875 
L 434.67923 110.910875 
L 438.83379 110.910875 
L 439.19441 110.910875 
L 442.98835 108.403502 
L 447.14291 104.796458 
L 447.742814 104.158875 
L 451.29747 98.083062 
L 451.29747 97.406875 
L 451.29747 90.654875 
L 451.29747 83.902875 
L 451.29747 77.150875 
L 451.29747 70.398875 
L 451.29747 63.646875 
L 451.29747 56.894875 
L 451.29747 50.142875 
L 448.894744 50.142875 
L 449.769816 56.894875 
L 450.506512 63.646875 
L 450.727048 70.398875 
L 450.223488 77.150875 
L 448.932068 83.902875 
L 447.14291 89.847549 
L 446.897901 90.654875 
L 444.059417 97.406875 
L 442.98835 99.180677 
L 439.614725 104.158875 
L 438.83379 104.711745 
L 434.67923 107.135344 
L 430.52467 109.07533 
L 426.37011 110.656709 
L 425.590283 110.910875 
z
" style="fill:#0028ff;"/>
   </g>
   <g id="PathCollection_4">
    <path clip-path="url(#p88f1d83c96)" d="M 39.99603 175.423158 
L 39.99603 178.430875 
L 42.94068 178.430875 
z
" style="fill:#006cff;"/>
    <path clip-path="url(#p88f1d83c96)" d="M 405.59731 110.910875 
L 409.75187 110.910875 
L 413.90643 110.910875 
L 418.06099 110.910875 
L 422.21555 110.910875 
L 425.590283 110.910875 
L 426.37011 110.656709 
L 430.52467 109.07533 
L 434.67923 107.135344 
L 438.83379 104.711745 
L 439.614725 104.158875 
L 442.98835 99.180677 
L 444.059417 97.406875 
L 446.897901 90.654875 
L 447.14291 89.847549 
L 448.932068 83.902875 
L 450.223488 77.150875 
L 450.727048 70.398875 
L 450.506512 63.646875 
L 449.769816 56.894875 
L 448.894744 50.142875 
L 447.14291 50.142875 
L 444.72517 50.142875 
L 444.389855 56.894875 
L 443.983943 63.646875 
L 443.294903 70.398875 
L 442.98835 72.381734 
L 442.166158 77.150875 
L 440.538102 83.902875 
L 438.83379 89.11823 
L 438.284845 90.654875 
L 434.93264 97.406875 
L 434.67923 97.733649 
L 430.52467 102.373268 
L 428.634761 104.158875 
L 426.37011 105.143117 
L 422.21555 106.678038 
L 418.06099 107.969088 
L 413.90643 109.065064 
L 409.75187 110.002851 
L 405.59731 110.810922 
L 405.016921 110.910875 
z
" style="fill:#006cff;"/>
   </g>
   <g id="PathCollection_5">
    <path clip-path="url(#p88f1d83c96)" d="M 44.15059 178.430875 
L 48.30515 178.430875 
L 50.590974 178.430875 
L 48.30515 177.188817 
L 44.15059 174.164706 
L 41.411454 171.678875 
L 39.99603 169.764974 
L 39.99603 171.678875 
L 39.99603 175.423158 
L 42.94068 178.430875 
z
" style="fill:#00b0ff;"/>
    <path clip-path="url(#p88f1d83c96)" d="M 243.56947 178.430875 
L 243.56947 175.305177 
L 240.427055 178.430875 
z
" style="fill:#00b0ff;"/>
    <path clip-path="url(#p88f1d83c96)" d="M 368.20627 110.910875 
L 372.36083 110.910875 
L 376.51539 110.910875 
L 380.66995 110.910875 
L 384.82451 110.910875 
L 388.97907 110.910875 
L 393.13363 110.910875 
L 397.28819 110.910875 
L 401.44275 110.910875 
L 405.016921 110.910875 
L 405.59731 110.810922 
L 409.75187 110.002851 
L 413.90643 109.065064 
L 418.06099 107.969088 
L 422.21555 106.678038 
L 426.37011 105.143117 
L 428.634761 104.158875 
L 430.52467 102.373268 
L 434.67923 97.733649 
L 434.93264 97.406875 
L 438.284845 90.654875 
L 438.83379 89.11823 
L 440.538102 83.902875 
L 442.166158 77.150875 
L 442.98835 72.381734 
L 443.294903 70.398875 
L 443.983943 63.646875 
L 444.389855 56.894875 
L 444.72517 50.142875 
L 442.98835 50.142875 
L 438.83379 50.142875 
L 438.795951 50.142875 
L 437.616794 56.894875 
L 436.435052 63.646875 
L 435.089433 70.398875 
L 434.67923 72.151953 
L 433.36723 77.150875 
L 431.184552 83.902875 
L 430.52467 85.50411 
L 428.138612 90.654875 
L 426.37011 93.404327 
L 423.412143 97.406875 
L 422.21555 98.42906 
L 418.06099 101.5088 
L 413.90643 104.118632 
L 413.833725 104.158875 
L 409.75187 105.222841 
L 405.59731 106.158135 
L 401.44275 106.9705 
L 397.28819 107.680127 
L 393.13363 108.303335 
L 388.97907 108.853452 
L 384.82451 109.341461 
L 380.66995 109.776497 
L 376.51539 110.166218 
L 372.36083 110.517096 
L 368.20627 110.834645 
L 367.118824 110.910875 
z
" style="fill:#00b0ff;"/>
   </g>
   <g id="PathCollection_6">
    <path clip-path="url(#p88f1d83c96)" d="M 44.15059 174.164706 
L 48.30515 177.188817 
L 50.590974 178.430875 
L 52.45971 178.430875 
L 56.61427 178.430875 
L 60.76883 178.430875 
L 64.92339 178.430875 
L 64.980543 178.430875 
L 64.92339 178.415368 
L 60.76883 177.132991 
L 56.61427 175.601813 
L 52.45971 173.722428 
L 48.86535 171.678875 
L 48.30515 171.061178 
L 44.15059 165.887855 
L 43.410586 164.926875 
L 39.99603 159.601003 
L 39.99603 164.926875 
L 39.99603 169.764974 
L 41.411454 171.678875 
z
" style="fill:#0cf4eb;"/>
    <path clip-path="url(#p88f1d83c96)" d="M 235.26035 178.430875 
L 239.41491 178.430875 
L 240.427055 178.430875 
L 243.56947 175.305177 
L 243.56947 171.678875 
L 243.56947 170.71152 
L 242.821818 171.678875 
L 239.41491 174.684394 
L 235.26035 177.538756 
L 233.444084 178.430875 
z
" style="fill:#0cf4eb;"/>
    <path clip-path="url(#p88f1d83c96)" d="M 293.42419 110.910875 
L 297.57875 110.910875 
L 301.73331 110.910875 
L 305.88787 110.910875 
L 310.04243 110.910875 
L 314.19699 110.910875 
L 318.35155 110.910875 
L 322.50611 110.910875 
L 326.66067 110.910875 
L 330.81523 110.910875 
L 334.96979 110.910875 
L 339.12435 110.910875 
L 343.27891 110.910875 
L 347.43347 110.910875 
L 351.58803 110.910875 
L 355.74259 110.910875 
L 359.89715 110.910875 
L 364.05171 110.910875 
L 367.118824 110.910875 
L 368.20627 110.834645 
L 372.36083 110.517096 
L 376.51539 110.166218 
L 380.66995 109.776497 
L 384.82451 109.341461 
L 388.97907 108.853452 
L 393.13363 108.303335 
L 397.28819 107.680127 
L 401.44275 106.9705 
L 405.59731 106.158135 
L 409.75187 105.222841 
L 413.833725 104.158875 
L 413.90643 104.118632 
L 418.06099 101.5088 
L 422.21555 98.42906 
L 423.412143 97.406875 
L 426.37011 93.404327 
L 428.138612 90.654875 
L 430.52467 85.50411 
L 431.184552 83.902875 
L 433.36723 77.150875 
L 434.67923 72.151953 
L 435.089433 70.398875 
L 436.435052 63.646875 
L 437.616794 56.894875 
L 438.795951 50.142875 
L 434.67923 50.142875 
L 430.765113 50.142875 
L 430.52467 51.207805 
L 429.075402 56.894875 
L 427.319267 63.646875 
L 426.37011 67.026068 
L 425.310046 70.398875 
L 422.90086 77.150875 
L 422.21555 78.767239 
L 419.76886 83.902875 
L 418.06099 86.727495 
L 415.364642 90.654875 
L 413.90643 92.202111 
L 409.75187 96.059398 
L 408.094291 97.406875 
L 405.59731 98.710807 
L 401.44275 100.613386 
L 397.28819 102.272515 
L 393.13363 103.727433 
L 391.753758 104.158875 
L 388.97907 104.575602 
L 384.82451 105.132973 
L 380.66995 105.630268 
L 376.51539 106.07612 
L 372.36083 106.477836 
L 368.20627 106.84165 
L 364.05171 107.172922 
L 359.89715 107.476299 
L 355.74259 107.755838 
L 351.58803 108.015112 
L 347.43347 108.257294 
L 343.27891 108.485225 
L 339.12435 108.701474 
L 334.96979 108.908382 
L 330.81523 109.108108 
L 326.66067 109.302659 
L 322.50611 109.493927 
L 318.35155 109.683716 
L 314.19699 109.873769 
L 310.04243 110.065804 
L 305.88787 110.261548 
L 301.73331 110.462788 
L 297.57875 110.671439 
L 293.42419 110.889653 
L 293.044503 110.910875 
z
" style="fill:#0cf4eb;"/>
   </g>
   <g id="PathCollection_7">
    <path clip-path="url(#p88f1d83c96)" d="M 52.45971 173.722428 
L 56.61427 175.601813 
L 60.76883 177.132991 
L 64.92339 178.415368 
L 64.980543 178.430875 
L 69.07795 178.430875 
L 73.23251 178.430875 
L 77.38707 178.430875 
L 81.54163 178.430875 
L 85.69619 178.430875 
L 87.82319 178.430875 
L 85.69619 178.085328 
L 81.54163 177.336087 
L 77.38707 176.494297 
L 73.23251 175.544104 
L 69.07795 174.464267 
L 64.92339 173.225302 
L 60.76883 171.784798 
L 60.502829 171.678875 
L 56.61427 168.440525 
L 52.955808 164.926875 
L 52.45971 164.227924 
L 48.461436 158.174875 
L 48.30515 157.884175 
L 44.860955 151.422875 
L 44.15059 149.905736 
L 41.602694 144.670875 
L 39.99603 140.936048 
L 39.99603 144.670875 
L 39.99603 151.422875 
L 39.99603 158.174875 
L 39.99603 159.601003 
L 43.410586 164.926875 
L 44.15059 165.887855 
L 48.30515 171.061178 
L 48.86535 171.678875 
z
" style="fill:#43ffb4;"/>
    <path clip-path="url(#p88f1d83c96)" d="M 222.79667 178.430875 
L 226.95123 178.430875 
L 231.10579 178.430875 
L 233.444084 178.430875 
L 235.26035 177.538756 
L 239.41491 174.684394 
L 242.821818 171.678875 
L 243.56947 170.71152 
L 243.56947 164.926875 
L 243.56947 162.91396 
L 242.176961 164.926875 
L 239.41491 168.332257 
L 236.521897 171.678875 
L 235.26035 172.531929 
L 231.10579 174.657693 
L 226.95123 176.263208 
L 222.79667 177.511197 
L 218.9744 178.430875 
z
" style="fill:#43ffb4;"/>
    <path clip-path="url(#p88f1d83c96)" d="M 260.18771 110.910875 
L 264.34227 110.910875 
L 268.49683 110.910875 
L 272.65139 110.910875 
L 276.80595 110.910875 
L 280.96051 110.910875 
L 285.11507 110.910875 
L 289.26963 110.910875 
L 293.044503 110.910875 
L 293.42419 110.889653 
L 297.57875 110.671439 
L 301.73331 110.462788 
L 305.88787 110.261548 
L 310.04243 110.065804 
L 314.19699 109.873769 
L 318.35155 109.683716 
L 322.50611 109.493927 
L 326.66067 109.302659 
L 330.81523 109.108108 
L 334.96979 108.908382 
L 339.12435 108.701474 
L 343.27891 108.485225 
L 347.43347 108.257294 
L 351.58803 108.015112 
L 355.74259 107.755838 
L 359.89715 107.476299 
L 364.05171 107.172922 
L 368.20627 106.84165 
L 372.36083 106.477836 
L 376.51539 106.07612 
L 380.66995 105.630268 
L 384.82451 105.132973 
L 388.97907 104.575602 
L 391.753758 104.158875 
L 393.13363 103.727433 
L 397.28819 102.272515 
L 401.44275 100.613386 
L 405.59731 98.710807 
L 408.094291 97.406875 
L 409.75187 96.059398 
L 413.90643 92.202111 
L 415.364642 90.654875 
L 418.06099 86.727495 
L 419.76886 83.902875 
L 422.21555 78.767239 
L 422.90086 77.150875 
L 425.310046 70.398875 
L 426.37011 67.026068 
L 427.319267 63.646875 
L 429.075402 56.894875 
L 430.52467 51.207805 
L 430.765113 50.142875 
L 430.52467 50.142875 
L 426.37011 50.142875 
L 422.21555 50.142875 
L 420.501095 50.142875 
L 418.315107 56.894875 
L 418.06099 57.652784 
L 415.835078 63.646875 
L 413.90643 68.400828 
L 413.006272 70.398875 
L 409.75187 76.735098 
L 409.51358 77.150875 
L 405.59731 82.876664 
L 404.808402 83.902875 
L 401.44275 87.375573 
L 397.831937 90.654875 
L 397.28819 91.018147 
L 393.13363 93.503177 
L 388.97907 95.694303 
L 385.322869 97.406875 
L 384.82451 97.558861 
L 380.66995 98.705408 
L 376.51539 99.732329 
L 372.36083 100.656771 
L 368.20627 101.493326 
L 364.05171 102.254505 
L 359.89715 102.951129 
L 355.74259 103.59263 
L 351.788317 104.158875 
L 351.58803 104.172874 
L 347.43347 104.446477 
L 343.27891 104.704082 
L 339.12435 104.948575 
L 334.96979 105.182594 
L 330.81523 105.408568 
L 326.66067 105.628765 
L 322.50611 105.845318 
L 318.35155 106.060266 
L 314.19699 106.275581 
L 310.04243 106.493204 
L 305.88787 106.715087 
L 301.73331 106.943247 
L 297.57875 107.179839 
L 293.42419 107.427269 
L 289.26963 107.688374 
L 285.11507 107.966717 
L 280.96051 108.267088 
L 276.80595 108.596416 
L 272.65139 108.965524 
L 268.49683 109.392857 
L 264.34227 109.913487 
L 260.18771 110.605318 
L 259.010544 110.910875 
z
" style="fill:#43ffb4;"/>
    <path clip-path="url(#p88f1d83c96)" d="M 40.528722 56.894875 
L 42.175731 50.142875 
L 39.99603 50.142875 
L 39.99603 56.894875 
L 39.99603 58.997971 
z
" style="fill:#43ffb4;"/>
   </g>
   <g id="PathCollection_8">
    <path clip-path="url(#p88f1d83c96)" d="M 60.76883 171.784798 
L 64.92339 173.225302 
L 69.07795 174.464267 
L 73.23251 175.544104 
L 77.38707 176.494297 
L 81.54163 177.336087 
L 85.69619 178.085328 
L 87.82319 178.430875 
L 89.85075 178.430875 
L 94.00531 178.430875 
L 98.15987 178.430875 
L 102.31443 178.430875 
L 106.46899 178.430875 
L 110.62355 178.430875 
L 114.77811 178.430875 
L 118.93267 178.430875 
L 123.08723 178.430875 
L 127.24179 178.430875 
L 130.843349 178.430875 
L 127.24179 178.23993 
L 123.08723 177.98274 
L 118.93267 177.686326 
L 114.77811 177.348162 
L 110.62355 176.965251 
L 106.46899 176.534057 
L 102.31443 176.050409 
L 98.15987 175.509373 
L 94.00531 174.905087 
L 89.85075 174.230521 
L 85.69619 173.477136 
L 81.54163 172.634402 
L 77.38707 171.689055 
L 77.34642 171.678875 
L 73.23251 169.493322 
L 69.07795 166.996541 
L 66.026685 164.926875 
L 64.92339 163.759382 
L 60.76883 158.89407 
L 60.210256 158.174875 
L 56.61427 152.056812 
L 56.263146 151.422875 
L 53.162967 144.670875 
L 52.45971 142.882217 
L 50.538952 137.918875 
L 48.30515 131.305384 
L 48.258157 131.166875 
L 46.326734 124.414875 
L 44.737455 117.662875 
L 44.15059 114.432536 
L 43.513818 110.910875 
L 42.675632 104.158875 
L 42.232713 97.406875 
L 42.171618 90.654875 
L 42.456986 83.902875 
L 43.024901 77.150875 
L 43.77127 70.398875 
L 44.15059 67.398522 
L 44.580861 63.646875 
L 45.32219 56.894875 
L 45.750273 50.142875 
L 44.15059 50.142875 
L 42.175731 50.142875 
L 40.528722 56.894875 
L 39.99603 58.997971 
L 39.99603 63.646875 
L 39.99603 70.398875 
L 39.99603 77.150875 
L 39.99603 83.902875 
L 39.99603 90.654875 
L 39.99603 97.406875 
L 39.99603 104.158875 
L 39.99603 110.910875 
L 39.99603 117.662875 
L 39.99603 124.414875 
L 39.99603 131.166875 
L 39.99603 137.918875 
L 39.99603 140.936048 
L 41.602694 144.670875 
L 44.15059 149.905736 
L 44.860955 151.422875 
L 48.30515 157.884175 
L 48.461436 158.174875 
L 52.45971 164.227924 
L 52.955808 164.926875 
L 56.61427 168.440525 
L 60.502829 171.678875 
z
" style="fill:#7aff7d;"/>
    <path clip-path="url(#p88f1d83c96)" d="M 185.40563 178.430875 
L 189.56019 178.430875 
L 193.71475 178.430875 
L 197.86931 178.430875 
L 202.02387 178.430875 
L 206.17843 178.430875 
L 210.33299 178.430875 
L 214.48755 178.430875 
L 218.64211 178.430875 
L 218.9744 178.430875 
L 222.79667 177.511197 
L 226.95123 176.263208 
L 231.10579 174.657693 
L 235.26035 172.531929 
L 236.521897 171.678875 
L 239.41491 168.332257 
L 242.176961 164.926875 
L 243.56947 162.91396 
L 243.56947 158.174875 
L 243.56947 151.471838 
L 239.41491 157.939193 
L 239.262971 158.174875 
L 235.26035 163.698767 
L 234.301862 164.926875 
L 231.10579 167.990841 
L 226.95123 171.333631 
L 226.434655 171.678875 
L 222.79667 172.878582 
L 218.64211 173.986543 
L 214.48755 174.896053 
L 210.33299 175.653089 
L 206.17843 176.289451 
L 202.02387 176.827796 
L 197.86931 177.284691 
L 193.71475 177.672503 
L 189.56019 178.000615 
L 185.40563 178.276227 
L 182.602027 178.430875 
z
" style="fill:#7aff7d;"/>
    <path clip-path="url(#p88f1d83c96)" d="M 251.87859 110.910875 
L 256.03315 110.910875 
L 259.010544 110.910875 
L 260.18771 110.605318 
L 264.34227 109.913487 
L 268.49683 109.392857 
L 272.65139 108.965524 
L 276.80595 108.596416 
L 280.96051 108.267088 
L 285.11507 107.966717 
L 289.26963 107.688374 
L 293.42419 107.427269 
L 297.57875 107.179839 
L 301.73331 106.943247 
L 305.88787 106.715087 
L 310.04243 106.493204 
L 314.19699 106.275581 
L 318.35155 106.060266 
L 322.50611 105.845318 
L 326.66067 105.628765 
L 330.81523 105.408568 
L 334.96979 105.182594 
L 339.12435 104.948575 
L 343.27891 104.704082 
L 347.43347 104.446477 
L 351.58803 104.172874 
L 351.788317 104.158875 
L 355.74259 103.59263 
L 359.89715 102.951129 
L 364.05171 102.254505 
L 368.20627 101.493326 
L 372.36083 100.656771 
L 376.51539 99.732329 
L 380.66995 98.705408 
L 384.82451 97.558861 
L 385.322869 97.406875 
L 388.97907 95.694303 
L 393.13363 93.503177 
L 397.28819 91.018147 
L 397.831937 90.654875 
L 401.44275 87.375573 
L 404.808402 83.902875 
L 405.59731 82.876664 
L 409.51358 77.150875 
L 409.75187 76.735098 
L 413.006272 70.398875 
L 413.90643 68.400828 
L 415.835078 63.646875 
L 418.06099 57.652784 
L 418.315107 56.894875 
L 420.501095 50.142875 
L 418.06099 50.142875 
L 413.90643 50.142875 
L 409.75187 50.142875 
L 407.170244 50.142875 
L 405.59731 53.75531 
L 404.097576 56.894875 
L 401.44275 62.120031 
L 400.58849 63.646875 
L 397.28819 68.973288 
L 396.311242 70.398875 
L 393.13363 74.435109 
L 390.75616 77.150875 
L 388.97907 78.847645 
L 384.82451 82.413721 
L 382.899257 83.902875 
L 380.66995 85.273707 
L 376.51539 87.580564 
L 372.36083 89.65891 
L 370.174878 90.654875 
L 368.20627 91.319949 
L 364.05171 92.605535 
L 359.89715 93.782196 
L 355.74259 94.86584 
L 351.58803 95.87045 
L 347.43347 96.808421 
L 344.623454 97.406875 
L 343.27891 97.595377 
L 339.12435 98.151003 
L 334.96979 98.682561 
L 330.81523 99.1956 
L 326.66067 99.695283 
L 322.50611 100.186463 
L 318.35155 100.673762 
L 314.19699 101.161644 
L 310.04243 101.654494 
L 305.88787 102.156714 
L 301.73331 102.672844 
L 297.57875 103.207743 
L 293.42419 103.766865 
L 290.671235 104.158875 
L 289.26963 104.256763 
L 285.11507 104.567759 
L 280.96051 104.90303 
L 276.80595 105.269922 
L 272.65139 105.679655 
L 268.49683 106.150699 
L 264.34227 106.716362 
L 260.18771 107.445078 
L 256.03315 108.512271 
L 251.87859 110.602537 
L 251.660219 110.910875 
z
" style="fill:#7aff7d;"/>
   </g>
   <g id="PathCollection_9">
    <path clip-path="url(#p88f1d83c96)" d="M 77.38707 171.689055 
L 81.54163 172.634402 
L 85.69619 173.477136 
L 89.85075 174.230521 
L 94.00531 174.905087 
L 98.15987 175.509373 
L 102.31443 176.050409 
L 106.46899 176.534057 
L 110.62355 176.965251 
L 114.77811 177.348162 
L 118.93267 177.686326 
L 123.08723 177.98274 
L 127.24179 178.23993 
L 130.843349 178.430875 
L 131.39635 178.430875 
L 135.55091 178.430875 
L 139.70547 178.430875 
L 143.86003 178.430875 
L 148.01459 178.430875 
L 152.16915 178.430875 
L 156.32371 178.430875 
L 160.47827 178.430875 
L 164.63283 178.430875 
L 168.78739 178.430875 
L 172.94195 178.430875 
L 177.09651 178.430875 
L 181.25107 178.430875 
L 182.602027 178.430875 
L 185.40563 178.276227 
L 189.56019 178.000615 
L 193.71475 177.672503 
L 197.86931 177.284691 
L 202.02387 176.827796 
L 206.17843 176.289451 
L 210.33299 175.653089 
L 214.48755 174.896053 
L 218.64211 173.986543 
L 222.79667 172.878582 
L 226.434655 171.678875 
L 226.95123 171.333631 
L 231.10579 167.990841 
L 234.301862 164.926875 
L 235.26035 163.698767 
L 239.262971 158.174875 
L 239.41491 157.939193 
L 243.56947 151.471838 
L 243.56947 151.422875 
L 243.56947 144.670875 
L 243.56947 137.918875 
L 243.56947 134.935918 
L 241.906982 137.918875 
L 239.41491 142.290819 
L 238.030252 144.670875 
L 235.26035 149.258133 
L 233.904957 151.422875 
L 231.10579 155.527633 
L 229.158182 158.174875 
L 226.95123 160.653855 
L 222.79667 164.752403 
L 222.592541 164.926875 
L 218.64211 167.207082 
L 214.48755 169.221322 
L 210.33299 170.919995 
L 208.157096 171.678875 
L 206.17843 172.012242 
L 202.02387 172.610385 
L 197.86931 173.118683 
L 193.71475 173.55058 
L 189.56019 173.916309 
L 185.40563 174.223738 
L 181.25107 174.478965 
L 177.09651 174.686725 
L 172.94195 174.850689 
L 168.78739 174.973679 
L 164.63283 175.057822 
L 160.47827 175.104668 
L 156.32371 175.115272 
L 152.16915 175.090253 
L 148.01459 175.029842 
L 143.86003 174.933906 
L 139.70547 174.801962 
L 135.55091 174.63319 
L 131.39635 174.426422 
L 127.24179 174.180135 
L 123.08723 173.892425 
L 118.93267 173.560977 
L 114.77811 173.183023 
L 110.62355 172.755278 
L 106.46899 172.273872 
L 102.31443 171.73424 
L 101.928145 171.678875 
L 98.15987 170.547736 
L 94.00531 169.155621 
L 89.85075 167.6005 
L 85.69619 165.86301 
L 83.673053 164.926875 
L 81.54163 163.379978 
L 77.38707 160.038348 
L 75.294599 158.174875 
L 73.23251 155.638524 
L 70.103681 151.422875 
L 69.07795 149.656715 
L 66.38788 144.670875 
L 64.92339 141.382403 
L 63.467043 137.918875 
L 61.042485 131.166875 
L 60.76883 130.285739 
L 59.021215 124.414875 
L 57.290155 117.662875 
L 56.61427 114.572027 
L 55.846327 110.910875 
L 54.672836 104.158875 
L 53.744398 97.406875 
L 53.044993 90.654875 
L 52.547713 83.902875 
L 52.45971 82.211922 
L 52.226433 77.150875 
L 52.019821 70.398875 
L 51.85243 63.646875 
L 51.633258 56.894875 
L 51.239081 50.142875 
L 48.30515 50.142875 
L 45.750273 50.142875 
L 45.32219 56.894875 
L 44.580861 63.646875 
L 44.15059 67.398522 
L 43.77127 70.398875 
L 43.024901 77.150875 
L 42.456986 83.902875 
L 42.171618 90.654875 
L 42.232713 97.406875 
L 42.675632 104.158875 
L 43.513818 110.910875 
L 44.15059 114.432536 
L 44.737455 117.662875 
L 46.326734 124.414875 
L 48.258157 131.166875 
L 48.30515 131.305384 
L 50.538952 137.918875 
L 52.45971 142.882217 
L 53.162967 144.670875 
L 56.263146 151.422875 
L 56.61427 152.056812 
L 60.210256 158.174875 
L 60.76883 158.89407 
L 64.92339 163.759382 
L 66.026685 164.926875 
L 69.07795 166.996541 
L 73.23251 169.493322 
L 77.34642 171.678875 
z
" style="fill:#b4ff43;"/>
    <path clip-path="url(#p88f1d83c96)" d="M 251.87859 110.602537 
L 256.03315 108.512271 
L 260.18771 107.445078 
L 264.34227 106.716362 
L 268.49683 106.150699 
L 272.65139 105.679655 
L 276.80595 105.269922 
L 280.96051 104.90303 
L 285.11507 104.567759 
L 289.26963 104.256763 
L 290.671235 104.158875 
L 293.42419 103.766865 
L 297.57875 103.207743 
L 301.73331 102.672844 
L 305.88787 102.156714 
L 310.04243 101.654494 
L 314.19699 101.161644 
L 318.35155 100.673762 
L 322.50611 100.186463 
L 326.66067 99.695283 
L 330.81523 99.1956 
L 334.96979 98.682561 
L 339.12435 98.151003 
L 343.27891 97.595377 
L 344.623454 97.406875 
L 347.43347 96.808421 
L 351.58803 95.87045 
L 355.74259 94.86584 
L 359.89715 93.782196 
L 364.05171 92.605535 
L 368.20627 91.319949 
L 370.174878 90.654875 
L 372.36083 89.65891 
L 376.51539 87.580564 
L 380.66995 85.273707 
L 382.899257 83.902875 
L 384.82451 82.413721 
L 388.97907 78.847645 
L 390.75616 77.150875 
L 393.13363 74.435109 
L 396.311242 70.398875 
L 397.28819 68.973288 
L 400.58849 63.646875 
L 401.44275 62.120031 
L 404.097576 56.894875 
L 405.59731 53.75531 
L 407.170244 50.142875 
L 405.59731 50.142875 
L 401.44275 50.142875 
L 397.28819 50.142875 
L 393.13363 50.142875 
L 388.97907 50.142875 
L 388.54312 50.142875 
L 384.82451 55.57028 
L 383.835591 56.894875 
L 380.66995 60.807809 
L 378.160071 63.646875 
L 376.51539 65.305433 
L 372.36083 69.138311 
L 370.872954 70.398875 
L 368.20627 72.348571 
L 364.05171 75.136795 
L 360.794307 77.150875 
L 359.89715 77.612743 
L 355.74259 79.60181 
L 351.58803 81.449546 
L 347.43347 83.177979 
L 345.592493 83.902875 
L 343.27891 84.6273 
L 339.12435 85.866287 
L 334.96979 87.05202 
L 330.81523 88.19681 
L 326.66067 89.312114 
L 322.50611 90.40872 
L 321.571514 90.654875 
L 318.35155 91.285231 
L 314.19699 92.100688 
L 310.04243 92.924178 
L 305.88787 93.762935 
L 301.73331 94.624377 
L 297.57875 95.516392 
L 293.42419 96.447786 
L 289.364127 97.406875 
L 289.26963 97.421563 
L 285.11507 98.113564 
L 280.96051 98.856837 
L 276.80595 99.666555 
L 272.65139 100.566172 
L 268.49683 101.595357 
L 264.34227 102.82881 
L 260.877904 104.158875 
L 260.18771 104.284838 
L 256.03315 105.337198 
L 251.87859 107.131523 
L 249.201986 110.910875 
L 251.660219 110.910875 
z
" style="fill:#b4ff43;"/>
   </g>
   <g id="PathCollection_10">
    <path clip-path="url(#p88f1d83c96)" d="M 102.31443 171.73424 
L 106.46899 172.273872 
L 110.62355 172.755278 
L 114.77811 173.183023 
L 118.93267 173.560977 
L 123.08723 173.892425 
L 127.24179 174.180135 
L 131.39635 174.426422 
L 135.55091 174.63319 
L 139.70547 174.801962 
L 143.86003 174.933906 
L 148.01459 175.029842 
L 152.16915 175.090253 
L 156.32371 175.115272 
L 160.47827 175.104668 
L 164.63283 175.057822 
L 168.78739 174.973679 
L 172.94195 174.850689 
L 177.09651 174.686725 
L 181.25107 174.478965 
L 185.40563 174.223738 
L 189.56019 173.916309 
L 193.71475 173.55058 
L 197.86931 173.118683 
L 202.02387 172.610385 
L 206.17843 172.012242 
L 208.157096 171.678875 
L 210.33299 170.919995 
L 214.48755 169.221322 
L 218.64211 167.207082 
L 222.592541 164.926875 
L 222.79667 164.752403 
L 226.95123 160.653855 
L 229.158182 158.174875 
L 231.10579 155.527633 
L 233.904957 151.422875 
L 235.26035 149.258133 
L 238.030252 144.670875 
L 239.41491 142.290819 
L 241.906982 137.918875 
L 243.56947 134.935918 
L 243.56947 131.166875 
L 243.56947 124.414875 
L 243.56947 117.662875 
L 247.72403 110.910875 
L 249.201986 110.910875 
L 251.87859 107.131523 
L 256.03315 105.337198 
L 260.18771 104.284838 
L 260.877904 104.158875 
L 264.34227 102.82881 
L 268.49683 101.595357 
L 272.65139 100.566172 
L 276.80595 99.666555 
L 280.96051 98.856837 
L 285.11507 98.113564 
L 289.26963 97.421563 
L 289.364127 97.406875 
L 293.42419 96.447786 
L 297.57875 95.516392 
L 301.73331 94.624377 
L 305.88787 93.762935 
L 310.04243 92.924178 
L 314.19699 92.100688 
L 318.35155 91.285231 
L 321.571514 90.654875 
L 322.50611 90.40872 
L 326.66067 89.312114 
L 330.81523 88.19681 
L 334.96979 87.05202 
L 339.12435 85.866287 
L 343.27891 84.6273 
L 345.592493 83.902875 
L 347.43347 83.177979 
L 351.58803 81.449546 
L 355.74259 79.60181 
L 359.89715 77.612743 
L 360.794307 77.150875 
L 364.05171 75.136795 
L 368.20627 72.348571 
L 370.872954 70.398875 
L 372.36083 69.138311 
L 376.51539 65.305433 
L 378.160071 63.646875 
L 380.66995 60.807809 
L 383.835591 56.894875 
L 384.82451 55.57028 
L 388.54312 50.142875 
L 384.82451 50.142875 
L 380.66995 50.142875 
L 376.51539 50.142875 
L 372.36083 50.142875 
L 368.20627 50.142875 
L 364.05171 50.142875 
L 359.89715 50.142875 
L 358.978407 50.142875 
L 355.74259 52.924361 
L 351.58803 56.286469 
L 350.795414 56.894875 
L 347.43347 59.23357 
L 343.27891 61.980339 
L 340.648341 63.646875 
L 339.12435 64.495488 
L 334.96979 66.728139 
L 330.81523 68.894062 
L 327.870313 70.398875 
L 326.66067 70.927036 
L 322.50611 72.722367 
L 318.35155 74.50773 
L 314.19699 76.299051 
L 312.251016 77.150875 
L 310.04243 77.949812 
L 305.88787 79.485845 
L 301.73331 81.063353 
L 297.57875 82.696061 
L 294.640157 83.902875 
L 293.42419 84.297698 
L 289.26963 85.720397 
L 285.11507 87.225852 
L 280.96051 88.835595 
L 276.80595 90.581222 
L 276.647168 90.654875 
L 272.65139 92.022347 
L 268.49683 93.620891 
L 264.34227 95.491291 
L 260.916556 97.406875 
L 260.18771 97.671992 
L 256.03315 99.65634 
L 251.87859 102.935554 
L 251.027602 104.158875 
L 247.72403 108.094892 
L 245.345778 110.910875 
L 243.56947 115.955106 
L 242.339212 117.662875 
L 239.41491 122.539284 
L 238.232833 124.414875 
L 235.26035 129.487367 
L 234.242228 131.166875 
L 231.10579 136.46086 
L 230.206474 137.918875 
L 226.95123 143.088448 
L 225.894057 144.670875 
L 222.79667 148.963003 
L 220.862336 151.422875 
L 218.64211 153.839696 
L 214.48755 157.86252 
L 214.121858 158.174875 
L 210.33299 160.638143 
L 206.17843 162.969946 
L 202.129871 164.926875 
L 202.02387 164.960474 
L 197.86931 166.099187 
L 193.71475 167.070219 
L 189.56019 167.894559 
L 185.40563 168.588727 
L 181.25107 169.165738 
L 177.09651 169.635834 
L 172.94195 170.007027 
L 168.78739 170.285521 
L 164.63283 170.476012 
L 160.47827 170.581929 
L 156.32371 170.605598 
L 152.16915 170.548374 
L 148.01459 170.410723 
L 143.86003 170.192283 
L 139.70547 169.891895 
L 135.55091 169.50761 
L 131.39635 169.03668 
L 127.24179 168.475521 
L 123.08723 167.819662 
L 118.93267 167.063668 
L 114.77811 166.201038 
L 110.62355 165.22407 
L 109.491149 164.926875 
L 106.46899 163.696318 
L 102.31443 161.803212 
L 98.15987 159.683023 
L 95.499865 158.174875 
L 94.00531 157.007359 
L 89.85075 153.421695 
L 87.754727 151.422875 
L 85.69619 148.898113 
L 82.554817 144.670875 
L 81.54163 142.998659 
L 78.7064 137.918875 
L 77.38707 135.117705 
L 75.657228 131.166875 
L 73.23251 124.760385 
L 73.110008 124.414875 
L 70.989296 117.662875 
L 69.113606 110.910875 
L 69.07795 110.769019 
L 67.521828 104.158875 
L 66.106609 97.406875 
L 64.92339 91.102614 
L 64.845555 90.654875 
L 63.767268 83.902875 
L 62.788626 77.150875 
L 61.871242 70.398875 
L 60.965185 63.646875 
L 60.76883 62.294999 
L 60.084732 56.894875 
L 59.119711 50.142875 
L 56.61427 50.142875 
L 52.45971 50.142875 
L 51.239081 50.142875 
L 51.633258 56.894875 
L 51.85243 63.646875 
L 52.019821 70.398875 
L 52.226433 77.150875 
L 52.45971 82.211922 
L 52.547713 83.902875 
L 53.044993 90.654875 
L 53.744398 97.406875 
L 54.672836 104.158875 
L 55.846327 110.910875 
L 56.61427 114.572027 
L 57.290155 117.662875 
L 59.021215 124.414875 
L 60.76883 130.285739 
L 61.042485 131.166875 
L 63.467043 137.918875 
L 64.92339 141.382403 
L 66.38788 144.670875 
L 69.07795 149.656715 
L 70.103681 151.422875 
L 73.23251 155.638524 
L 75.294599 158.174875 
L 77.38707 160.038348 
L 81.54163 163.379978 
L 83.673053 164.926875 
L 85.69619 165.86301 
L 89.85075 167.6005 
L 94.00531 169.155621 
L 98.15987 170.547736 
L 101.928145 171.678875 
z
" style="fill:#ebff0c;"/>
   </g>
   <g id="PathCollection_11">
    <path clip-path="url(#p88f1d83c96)" d="M 110.62355 165.22407 
L 114.77811 166.201038 
L 118.93267 167.063668 
L 123.08723 167.819662 
L 127.24179 168.475521 
L 131.39635 169.03668 
L 135.55091 169.50761 
L 139.70547 169.891895 
L 143.86003 170.192283 
L 148.01459 170.410723 
L 152.16915 170.548374 
L 156.32371 170.605598 
L 160.47827 170.581929 
L 164.63283 170.476012 
L 168.78739 170.285521 
L 172.94195 170.007027 
L 177.09651 169.635834 
L 181.25107 169.165738 
L 185.40563 168.588727 
L 189.56019 167.894559 
L 193.71475 167.070219 
L 197.86931 166.099187 
L 202.02387 164.960474 
L 202.129871 164.926875 
L 206.17843 162.969946 
L 210.33299 160.638143 
L 214.121858 158.174875 
L 214.48755 157.86252 
L 218.64211 153.839696 
L 220.862336 151.422875 
L 222.79667 148.963003 
L 225.894057 144.670875 
L 226.95123 143.088448 
L 230.206474 137.918875 
L 231.10579 136.46086 
L 234.242228 131.166875 
L 235.26035 129.487367 
L 238.232833 124.414875 
L 239.41491 122.539284 
L 242.339212 117.662875 
L 243.56947 115.955106 
L 245.345778 110.910875 
L 247.72403 108.094892 
L 251.027602 104.158875 
L 251.87859 102.935554 
L 256.03315 99.65634 
L 260.18771 97.671992 
L 260.916556 97.406875 
L 264.34227 95.491291 
L 268.49683 93.620891 
L 272.65139 92.022347 
L 276.647168 90.654875 
L 276.80595 90.581222 
L 280.96051 88.835595 
L 285.11507 87.225852 
L 289.26963 85.720397 
L 293.42419 84.297698 
L 294.640157 83.902875 
L 297.57875 82.696061 
L 301.73331 81.063353 
L 305.88787 79.485845 
L 310.04243 77.949812 
L 312.251016 77.150875 
L 314.19699 76.299051 
L 318.35155 74.50773 
L 322.50611 72.722367 
L 326.66067 70.927036 
L 327.870313 70.398875 
L 330.81523 68.894062 
L 334.96979 66.728139 
L 339.12435 64.495488 
L 340.648341 63.646875 
L 343.27891 61.980339 
L 347.43347 59.23357 
L 350.795414 56.894875 
L 351.58803 56.286469 
L 355.74259 52.924361 
L 358.978407 50.142875 
L 355.74259 50.142875 
L 351.58803 50.142875 
L 347.43347 50.142875 
L 343.27891 50.142875 
L 339.12435 50.142875 
L 334.96979 50.142875 
L 330.81523 50.142875 
L 326.66067 50.142875 
L 322.50611 50.142875 
L 318.35155 50.142875 
L 314.19699 50.142875 
L 312.530406 50.142875 
L 310.04243 51.84529 
L 305.88787 54.766472 
L 302.961899 56.894875 
L 301.73331 57.690658 
L 297.57875 60.488897 
L 293.42419 63.40898 
L 293.102143 63.646875 
L 289.26963 66.101208 
L 285.11507 68.902667 
L 283.019976 70.398875 
L 280.96051 71.646857 
L 276.80595 74.330249 
L 272.754144 77.150875 
L 272.65139 77.210071 
L 268.49683 79.805625 
L 264.34227 82.713533 
L 262.83319 83.902875 
L 260.18771 85.605282 
L 256.03315 88.840184 
L 254.146486 90.654875 
L 251.87859 92.504795 
L 247.933487 97.406875 
L 247.72403 97.67975 
L 243.56947 99.891143 
L 239.41491 103.015339 
L 238.265008 104.158875 
L 235.26035 107.393044 
L 232.489217 110.910875 
L 231.10579 112.847936 
L 227.787543 117.662875 
L 226.95123 118.948437 
L 223.35735 124.414875 
L 222.79667 125.283074 
L 218.848385 131.166875 
L 218.64211 131.467134 
L 214.48755 137.124296 
L 213.86006 137.918875 
L 210.33299 142.01267 
L 207.817302 144.670875 
L 206.17843 146.173429 
L 202.02387 149.559379 
L 199.43169 151.422875 
L 197.86931 152.32996 
L 193.71475 154.426317 
L 189.56019 156.226904 
L 185.40563 157.756301 
L 184.05029 158.174875 
L 181.25107 158.815838 
L 177.09651 159.5941 
L 172.94195 160.209482 
L 168.78739 160.671343 
L 164.63283 160.986844 
L 160.47827 161.161227 
L 156.32371 161.198031 
L 152.16915 161.099252 
L 148.01459 160.865455 
L 143.86003 160.495844 
L 139.70547 159.988299 
L 135.55091 159.339378 
L 131.39635 158.544283 
L 129.769393 158.174875 
L 127.24179 157.394153 
L 123.08723 155.897562 
L 118.93267 154.170893 
L 114.77811 152.198677 
L 113.325091 151.422875 
L 110.62355 149.583003 
L 106.46899 146.40515 
L 104.435044 144.670875 
L 102.31443 142.464141 
L 98.382162 137.918875 
L 98.15987 137.615624 
L 94.00531 131.381745 
L 93.874467 131.166875 
L 90.296007 124.414875 
L 89.85075 123.469274 
L 87.33252 117.662875 
L 85.69619 113.481846 
L 84.765163 110.910875 
L 82.519534 104.158875 
L 81.54163 100.998634 
L 80.511657 97.406875 
L 78.691383 90.654875 
L 77.38707 85.561796 
L 76.994767 83.902875 
L 75.447454 77.150875 
L 73.941101 70.398875 
L 73.23251 67.23265 
L 72.499184 63.646875 
L 71.086923 56.894875 
L 69.60741 50.142875 
L 69.07795 50.142875 
L 64.92339 50.142875 
L 60.76883 50.142875 
L 59.119711 50.142875 
L 60.084732 56.894875 
L 60.76883 62.294999 
L 60.965185 63.646875 
L 61.871242 70.398875 
L 62.788626 77.150875 
L 63.767268 83.902875 
L 64.845555 90.654875 
L 64.92339 91.102614 
L 66.106609 97.406875 
L 67.521828 104.158875 
L 69.07795 110.769019 
L 69.113606 110.910875 
L 70.989296 117.662875 
L 73.110008 124.414875 
L 73.23251 124.760385 
L 75.657228 131.166875 
L 77.38707 135.117705 
L 78.7064 137.918875 
L 81.54163 142.998659 
L 82.554817 144.670875 
L 85.69619 148.898113 
L 87.754727 151.422875 
L 89.85075 153.421695 
L 94.00531 157.007359 
L 95.499865 158.174875 
L 98.15987 159.683023 
L 102.31443 161.803212 
L 106.46899 163.696318 
L 109.491149 164.926875 
z
" style="fill:#ffc400;"/>
   </g>
   <g id="PathCollection_12">
    <path clip-path="url(#p88f1d83c96)" d="M 131.39635 158.544283 
L 135.55091 159.339378 
L 139.70547 159.988299 
L 143.86003 160.495844 
L 148.01459 160.865455 
L 152.16915 161.099252 
L 156.32371 161.198031 
L 160.47827 161.161227 
L 164.63283 160.986844 
L 168.78739 160.671343 
L 172.94195 160.209482 
L 177.09651 159.5941 
L 181.25107 158.815838 
L 184.05029 158.174875 
L 185.40563 157.756301 
L 189.56019 156.226904 
L 193.71475 154.426317 
L 197.86931 152.32996 
L 199.43169 151.422875 
L 202.02387 149.559379 
L 206.17843 146.173429 
L 207.817302 144.670875 
L 210.33299 142.01267 
L 213.86006 137.918875 
L 214.48755 137.124296 
L 218.64211 131.467134 
L 218.848385 131.166875 
L 222.79667 125.283074 
L 223.35735 124.414875 
L 226.95123 118.948437 
L 227.787543 117.662875 
L 231.10579 112.847936 
L 232.489217 110.910875 
L 235.26035 107.393044 
L 238.265008 104.158875 
L 239.41491 103.015339 
L 243.56947 99.891143 
L 247.72403 97.67975 
L 247.933487 97.406875 
L 251.87859 92.504795 
L 254.146486 90.654875 
L 256.03315 88.840184 
L 260.18771 85.605282 
L 262.83319 83.902875 
L 264.34227 82.713533 
L 268.49683 79.805625 
L 272.65139 77.210071 
L 272.754144 77.150875 
L 276.80595 74.330249 
L 280.96051 71.646857 
L 283.019976 70.398875 
L 285.11507 68.902667 
L 289.26963 66.101208 
L 293.102143 63.646875 
L 293.42419 63.40898 
L 297.57875 60.488897 
L 301.73331 57.690658 
L 302.961899 56.894875 
L 305.88787 54.766472 
L 310.04243 51.84529 
L 312.530406 50.142875 
L 310.04243 50.142875 
L 305.88787 50.142875 
L 301.73331 50.142875 
L 297.57875 50.142875 
L 293.42419 50.142875 
L 289.26963 50.142875 
L 285.11507 50.142875 
L 280.96051 50.142875 
L 276.80595 50.142875 
L 273.294597 50.142875 
L 272.65139 50.790022 
L 268.49683 55.097324 
L 266.790554 56.894875 
L 264.34227 59.257438 
L 260.18771 63.351571 
L 259.881626 63.646875 
L 256.03315 67.123082 
L 252.446995 70.398875 
L 251.87859 70.891716 
L 247.72403 74.28681 
L 243.56947 76.258498 
L 242.027466 77.150875 
L 239.41491 78.555768 
L 235.26035 81.699613 
L 232.96486 83.902875 
L 231.10579 85.650587 
L 226.95123 90.318809 
L 226.67863 90.654875 
L 222.79667 95.482942 
L 221.350401 97.406875 
L 218.64211 101.06461 
L 216.401268 104.158875 
L 214.48755 106.825413 
L 211.516274 110.910875 
L 210.33299 112.527116 
L 206.413098 117.662875 
L 206.17843 117.961488 
L 202.02387 122.875875 
L 200.614872 124.414875 
L 197.86931 127.220783 
L 193.71475 131.060143 
L 193.584307 131.166875 
L 189.56019 134.136216 
L 185.40563 136.801814 
L 183.359658 137.918875 
L 181.25107 138.91979 
L 177.09651 140.549476 
L 172.94195 141.848013 
L 168.78739 142.826021 
L 164.63283 143.492343 
L 160.47827 143.853703 
L 156.32371 143.914512 
L 152.16915 143.676748 
L 148.01459 143.139874 
L 143.86003 142.300767 
L 139.70547 141.153624 
L 135.55091 139.689849 
L 131.444656 137.918875 
L 131.39635 137.894521 
L 127.24179 135.41588 
L 123.08723 132.518031 
L 121.397467 131.166875 
L 118.93267 128.916277 
L 114.77811 124.603306 
L 114.615994 124.414875 
L 110.62355 119.22128 
L 109.548652 117.662875 
L 106.46899 112.754609 
L 105.42218 110.910875 
L 102.31443 104.986287 
L 101.91901 104.158875 
L 98.889293 97.406875 
L 98.15987 95.696214 
L 96.189991 90.654875 
L 94.00531 84.82672 
L 93.686854 83.902875 
L 91.416855 77.150875 
L 89.85075 72.405849 
L 89.240254 70.398875 
L 87.193316 63.646875 
L 85.69619 58.737693 
L 85.17729 56.894875 
L 83.229229 50.142875 
L 81.54163 50.142875 
L 77.38707 50.142875 
L 73.23251 50.142875 
L 69.60741 50.142875 
L 71.086923 56.894875 
L 72.499184 63.646875 
L 73.23251 67.23265 
L 73.941101 70.398875 
L 75.447454 77.150875 
L 76.994767 83.902875 
L 77.38707 85.561796 
L 78.691383 90.654875 
L 80.511657 97.406875 
L 81.54163 100.998634 
L 82.519534 104.158875 
L 84.765163 110.910875 
L 85.69619 113.481846 
L 87.33252 117.662875 
L 89.85075 123.469274 
L 90.296007 124.414875 
L 93.874467 131.166875 
L 94.00531 131.381745 
L 98.15987 137.615624 
L 98.382162 137.918875 
L 102.31443 142.464141 
L 104.435044 144.670875 
L 106.46899 146.40515 
L 110.62355 149.583003 
L 113.325091 151.422875 
L 114.77811 152.198677 
L 118.93267 154.170893 
L 123.08723 155.897562 
L 127.24179 157.394153 
L 129.769393 158.174875 
z
" style="fill:#ff8600;"/>
   </g>
   <g id="PathCollection_13">
    <path clip-path="url(#p88f1d83c96)" d="M 135.55091 139.689849 
L 139.70547 141.153624 
L 143.86003 142.300767 
L 148.01459 143.139874 
L 152.16915 143.676748 
L 156.32371 143.914512 
L 160.47827 143.853703 
L 164.63283 143.492343 
L 168.78739 142.826021 
L 172.94195 141.848013 
L 177.09651 140.549476 
L 181.25107 138.91979 
L 183.359658 137.918875 
L 185.40563 136.801814 
L 189.56019 134.136216 
L 193.584307 131.166875 
L 193.71475 131.060143 
L 197.86931 127.220783 
L 200.614872 124.414875 
L 202.02387 122.875875 
L 206.17843 117.961488 
L 206.413098 117.662875 
L 210.33299 112.527116 
L 211.516274 110.910875 
L 214.48755 106.825413 
L 216.401268 104.158875 
L 218.64211 101.06461 
L 221.350401 97.406875 
L 222.79667 95.482942 
L 226.67863 90.654875 
L 226.95123 90.318809 
L 231.10579 85.650587 
L 232.96486 83.902875 
L 235.26035 81.699613 
L 239.41491 78.555768 
L 242.027466 77.150875 
L 243.56947 76.258498 
L 247.72403 74.28681 
L 251.87859 70.891716 
L 252.446995 70.398875 
L 256.03315 67.123082 
L 259.881626 63.646875 
L 260.18771 63.351571 
L 264.34227 59.257438 
L 266.790554 56.894875 
L 268.49683 55.097324 
L 272.65139 50.790022 
L 273.294597 50.142875 
L 272.65139 50.142875 
L 268.49683 50.142875 
L 264.34227 50.142875 
L 260.18771 50.142875 
L 256.03315 50.142875 
L 251.87859 50.142875 
L 247.72403 50.142875 
L 243.56947 50.142875 
L 239.41491 50.142875 
L 235.26035 50.142875 
L 231.10579 50.142875 
L 227.402294 50.142875 
L 226.95123 50.681062 
L 222.79667 56.137166 
L 222.251439 56.894875 
L 218.64211 61.711979 
L 217.244432 63.646875 
L 214.48755 67.357279 
L 212.263284 70.398875 
L 210.33299 72.990639 
L 207.219725 77.150875 
L 206.17843 78.524353 
L 202.02387 83.865121 
L 201.992948 83.902875 
L 197.86931 88.86172 
L 196.278152 90.654875 
L 193.71475 93.484936 
L 189.842634 97.406875 
L 189.56019 97.684638 
L 185.40563 101.31316 
L 181.678691 104.158875 
L 181.25107 104.471067 
L 177.09651 107.013541 
L 172.94195 109.067407 
L 168.78739 110.619351 
L 167.621243 110.910875 
L 164.63283 111.611545 
L 160.47827 112.101777 
L 156.32371 112.10505 
L 152.16915 111.616453 
L 149.196212 110.910875 
L 148.01459 110.609229 
L 143.86003 109.007892 
L 139.70547 106.850233 
L 135.609442 104.158875 
L 135.55091 104.117993 
L 131.39635 100.607334 
L 128.194616 97.406875 
L 127.24179 96.405849 
L 123.08723 91.358838 
L 122.578287 90.654875 
L 118.93267 85.411179 
L 118.000871 83.902875 
L 114.77811 78.531817 
L 114.034194 77.150875 
L 110.62355 70.693024 
L 110.482911 70.398875 
L 107.285719 63.646875 
L 106.46899 61.918296 
L 104.303196 56.894875 
L 102.31443 52.326572 
L 101.441934 50.142875 
L 98.15987 50.142875 
L 94.00531 50.142875 
L 89.85075 50.142875 
L 85.69619 50.142875 
L 83.229229 50.142875 
L 85.17729 56.894875 
L 85.69619 58.737693 
L 87.193316 63.646875 
L 89.240254 70.398875 
L 89.85075 72.405849 
L 91.416855 77.150875 
L 93.686854 83.902875 
L 94.00531 84.82672 
L 96.189991 90.654875 
L 98.15987 95.696214 
L 98.889293 97.406875 
L 101.91901 104.158875 
L 102.31443 104.986287 
L 105.42218 110.910875 
L 106.46899 112.754609 
L 109.548652 117.662875 
L 110.62355 119.22128 
L 114.615994 124.414875 
L 114.77811 124.603306 
L 118.93267 128.916277 
L 121.397467 131.166875 
L 123.08723 132.518031 
L 127.24179 135.41588 
L 131.39635 137.894521 
L 131.444656 137.918875 
z
" style="fill:#ff4700;"/>
   </g>
   <g id="PathCollection_14">
    <path clip-path="url(#p88f1d83c96)" d="M 152.16915 111.616453 
L 156.32371 112.10505 
L 160.47827 112.101777 
L 164.63283 111.611545 
L 167.621243 110.910875 
L 168.78739 110.619351 
L 172.94195 109.067407 
L 177.09651 107.013541 
L 181.25107 104.471067 
L 181.678691 104.158875 
L 185.40563 101.31316 
L 189.56019 97.684638 
L 189.842634 97.406875 
L 193.71475 93.484936 
L 196.278152 90.654875 
L 197.86931 88.86172 
L 201.992948 83.902875 
L 202.02387 83.865121 
L 206.17843 78.524353 
L 207.219725 77.150875 
L 210.33299 72.990639 
L 212.263284 70.398875 
L 214.48755 67.357279 
L 217.244432 63.646875 
L 218.64211 61.711979 
L 222.251439 56.894875 
L 222.79667 56.137166 
L 226.95123 50.681062 
L 227.402294 50.142875 
L 226.95123 50.142875 
L 222.79667 50.142875 
L 218.64211 50.142875 
L 214.48755 50.142875 
L 210.33299 50.142875 
L 206.17843 50.142875 
L 202.02387 50.142875 
L 197.86931 50.142875 
L 193.71475 50.142875 
L 189.56019 50.142875 
L 188.31157 50.142875 
L 185.40563 52.905084 
L 181.25107 56.334217 
L 180.440837 56.894875 
L 177.09651 59.201339 
L 172.94195 61.497697 
L 168.78739 63.202865 
L 167.101385 63.646875 
L 164.63283 64.291434 
L 160.47827 64.757784 
L 156.32371 64.592975 
L 152.16915 63.784712 
L 151.777162 63.646875 
L 148.01459 62.310984 
L 143.86003 60.166056 
L 139.70547 57.33957 
L 139.180022 56.894875 
L 135.55091 53.8285 
L 131.913453 50.142875 
L 131.39635 50.142875 
L 127.24179 50.142875 
L 123.08723 50.142875 
L 118.93267 50.142875 
L 114.77811 50.142875 
L 110.62355 50.142875 
L 106.46899 50.142875 
L 102.31443 50.142875 
L 101.441934 50.142875 
L 102.31443 52.326572 
L 104.303196 56.894875 
L 106.46899 61.918296 
L 107.285719 63.646875 
L 110.482911 70.398875 
L 110.62355 70.693024 
L 114.034194 77.150875 
L 114.77811 78.531817 
L 118.000871 83.902875 
L 118.93267 85.411179 
L 122.578287 90.654875 
L 123.08723 91.358838 
L 127.24179 96.405849 
L 128.194616 97.406875 
L 131.39635 100.607334 
L 135.55091 104.117993 
L 135.609442 104.158875 
L 139.70547 106.850233 
L 143.86003 109.007892 
L 148.01459 110.609229 
L 149.196212 110.910875 
z
" style="fill:#f10800;"/>
   </g>
   <g id="PathCollection_15">
    <path clip-path="url(#p88f1d83c96)" d="M 152.16915 63.784712 
L 156.32371 64.592975 
L 160.47827 64.757784 
L 164.63283 64.291434 
L 167.101385 63.646875 
L 168.78739 63.202865 
L 172.94195 61.497697 
L 177.09651 59.201339 
L 180.440837 56.894875 
L 181.25107 56.334217 
L 185.40563 52.905084 
L 188.31157 50.142875 
L 185.40563 50.142875 
L 181.25107 50.142875 
L 177.09651 50.142875 
L 172.94195 50.142875 
L 168.78739 50.142875 
L 164.63283 50.142875 
L 160.47827 50.142875 
L 156.32371 50.142875 
L 152.16915 50.142875 
L 148.01459 50.142875 
L 143.86003 50.142875 
L 139.70547 50.142875 
L 135.55091 50.142875 
L 131.913453 50.142875 
L 135.55091 53.8285 
L 139.180022 56.894875 
L 139.70547 57.33957 
L 143.86003 60.166056 
L 148.01459 62.310984 
L 151.777162 63.646875 
z
" style="fill:#a40000;"/>
   </g>
   <g id="line2d_1">
    <path clip-path="url(#p88f1d83c96)" d="M 37.91875 13.006875 
L 37.91875 181.806875 
L 245.64675 181.806875 
L 245.64675 114.286875 
L 453.37475 114.286875 
L 453.37475 13.006875 
" style="fill:none;stroke:#000000;stroke-linecap:square;"/>
   </g>
   <g id="line2d_2">
    <path clip-path="url(#p88f1d83c96)" d="M 37.91875 46.766875 
L 453.37475 46.766875 
" style="fill:none;stroke:#0000ff;stroke-linecap:square;"/>
   </g>
   <g id="patch_3">
    <path d="M 37.91875 181.806875 
L 37.91875 13.006875 
" style="fill:none;stroke:#000000;stroke-linecap:square;stroke-linejoin:miter;"/>
   </g>
   <g id="patch_4">
    <path d="M 37.91875 13.006875 
L 453.37475 13.006875 
" style="fill:none;stroke:#000000;stroke-linecap:square;stroke-linejoin:miter;"/>
   </g>
   <g id="patch_5">
    <path d="M 37.91875 181.806875 
L 453.37475 181.806875 
" style="fill:none;stroke:#000000;stroke-linecap:square;stroke-linejoin:miter;"/>
   </g>
   <g id="patch_6">
    <path d="M 453.37475 181.806875 
L 453.37475 13.006875 
" style="fill:none;stroke:#000000;stroke-linecap:square;stroke-linejoin:miter;"/>
   </g>
   <g id="matplotlib.axis_1">
    <g id="xtick_1">
     <g id="line2d_3">
      <defs>
       <path d="M 0 0 
L 0 -4 
" id="m8df6c5eca0" style="stroke:#000000;stroke-width:0.5;"/>
      </defs>
      <g>
       <use style="stroke:#000000;stroke-width:0.5;" x="37.91875" xlink:href="#m8df6c5eca0" y="181.806875"/>
      </g>
     </g>
     <g id="line2d_4">
      <defs>
       <path d="M 0 0 
L 0 4 
" id="ma660831f4b" style="stroke:#000000;stroke-width:0.5;"/>
      </defs>
      <g>
       <use style="stroke:#000000;stroke-width:0.5;" x="37.91875" xlink:href="#ma660831f4b" y="13.006875"/>
      </g>
     </g>
     <g id="text_1">
      <!-- 0.00 -->
      <defs>
       <path d="M 10.6875 12.40625 
L 21 12.40625 
L 21 0 
L 10.6875 0 
z
" id="BitstreamVeraSans-Roman-2e"/>
       <path d="M 31.78125 66.40625 
Q 24.171875 66.40625 20.328125 58.90625 
Q 16.5 51.421875 16.5 36.375 
Q 16.5 21.390625 20.328125 13.890625 
Q 24.171875 6.390625 31.78125 6.390625 
Q 39.453125 6.390625 43.28125 13.890625 
Q 47.125 21.390625 47.125 36.375 
Q 47.125 51.421875 43.28125 58.90625 
Q 39.453125 66.40625 31.78125 66.40625 
M 31.78125 74.21875 
Q 44.046875 74.21875 50.515625 64.515625 
Q 56.984375 54.828125 56.984375 36.375 
Q 56.984375 17.96875 50.515625 8.265625 
Q 44.046875 -1.421875 31.78125 -1.421875 
Q 19.53125 -1.421875 13.0625 8.265625 
Q 6.59375 17.96875 6.59375 36.375 
Q 6.59375 54.828125 13.0625 64.515625 
Q 19.53125 74.21875 31.78125 74.21875 
" id="BitstreamVeraSans-Roman-30"/>
      </defs>
      <g transform="translate(24.559375 194.925)scale(0.12 -0.12)">
       <use xlink:href="#BitstreamVeraSans-Roman-30"/>
       <use x="63.623046875" xlink:href="#BitstreamVeraSans-Roman-2e"/>
       <use x="95.41015625" xlink:href="#BitstreamVeraSans-Roman-30"/>
       <use x="159.033203125" xlink:href="#BitstreamVeraSans-Roman-30"/>
      </g>
     </g>
    </g>
    <g id="xtick_2">
     <g id="line2d_5">
      <g>
       <use style="stroke:#000000;stroke-width:0.5;" x="89.85075" xlink:href="#m8df6c5eca0" y="181.806875"/>
      </g>
     </g>
     <g id="line2d_6">
      <g>
       <use style="stroke:#000000;stroke-width:0.5;" x="89.85075" xlink:href="#ma660831f4b" y="13.006875"/>
      </g>
     </g>
     <g id="text_2">
      <!-- 0.05 -->
      <defs>
       <path d="M 10.796875 72.90625 
L 49.515625 72.90625 
L 49.515625 64.59375 
L 19.828125 64.59375 
L 19.828125 46.734375 
Q 21.96875 47.46875 24.109375 47.828125 
Q 26.265625 48.1875 28.421875 48.1875 
Q 40.625 48.1875 47.75 41.5 
Q 54.890625 34.8125 54.890625 23.390625 
Q 54.890625 11.625 47.5625 5.09375 
Q 40.234375 -1.421875 26.90625 -1.421875 
Q 22.3125 -1.421875 17.546875 -0.640625 
Q 12.796875 0.140625 7.71875 1.703125 
L 7.71875 11.625 
Q 12.109375 9.234375 16.796875 8.0625 
Q 21.484375 6.890625 26.703125 6.890625 
Q 35.15625 6.890625 40.078125 11.328125 
Q 45.015625 15.765625 45.015625 23.390625 
Q 45.015625 31 40.078125 35.4375 
Q 35.15625 39.890625 26.703125 39.890625 
Q 22.75 39.890625 18.8125 39.015625 
Q 14.890625 38.140625 10.796875 36.28125 
z
" id="BitstreamVeraSans-Roman-35"/>
      </defs>
      <g transform="translate(76.491375 194.925)scale(0.12 -0.12)">
       <use xlink:href="#BitstreamVeraSans-Roman-30"/>
       <use x="63.623046875" xlink:href="#BitstreamVeraSans-Roman-2e"/>
       <use x="95.41015625" xlink:href="#BitstreamVeraSans-Roman-30"/>
       <use x="159.033203125" xlink:href="#BitstreamVeraSans-Roman-35"/>
      </g>
     </g>
    </g>
    <g id="xtick_3">
     <g id="line2d_7">
      <g>
       <use style="stroke:#000000;stroke-width:0.5;" x="141.78275" xlink:href="#m8df6c5eca0" y="181.806875"/>
      </g>
     </g>
     <g id="line2d_8">
      <g>
       <use style="stroke:#000000;stroke-width:0.5;" x="141.78275" xlink:href="#ma660831f4b" y="13.006875"/>
      </g>
     </g>
     <g id="text_3">
      <!-- 0.10 -->
      <defs>
       <path d="M 12.40625 8.296875 
L 28.515625 8.296875 
L 28.515625 63.921875 
L 10.984375 60.40625 
L 10.984375 69.390625 
L 28.421875 72.90625 
L 38.28125 72.90625 
L 38.28125 8.296875 
L 54.390625 8.296875 
L 54.390625 0 
L 12.40625 0 
z
" id="BitstreamVeraSans-Roman-31"/>
      </defs>
      <g transform="translate(128.423375 194.925)scale(0.12 -0.12)">
       <use xlink:href="#BitstreamVeraSans-Roman-30"/>
       <use x="63.623046875" xlink:href="#BitstreamVeraSans-Roman-2e"/>
       <use x="95.41015625" xlink:href="#BitstreamVeraSans-Roman-31"/>
       <use x="159.033203125" xlink:href="#BitstreamVeraSans-Roman-30"/>
      </g>
     </g>
    </g>
    <g id="xtick_4">
     <g id="line2d_9">
      <g>
       <use style="stroke:#000000;stroke-width:0.5;" x="193.71475" xlink:href="#m8df6c5eca0" y="181.806875"/>
      </g>
     </g>
     <g id="line2d_10">
      <g>
       <use style="stroke:#000000;stroke-width:0.5;" x="193.71475" xlink:href="#ma660831f4b" y="13.006875"/>
      </g>
     </g>
     <g id="text_4">
      <!-- 0.15 -->
      <g transform="translate(180.355375 194.925)scale(0.12 -0.12)">
       <use xlink:href="#BitstreamVeraSans-Roman-30"/>
       <use x="63.623046875" xlink:href="#BitstreamVeraSans-Roman-2e"/>
       <use x="95.41015625" xlink:href="#BitstreamVeraSans-Roman-31"/>
       <use x="159.033203125" xlink:href="#BitstreamVeraSans-Roman-35"/>
      </g>
     </g>
    </g>
    <g id="xtick_5">
     <g id="line2d_11">
      <g>
       <use style="stroke:#000000;stroke-width:0.5;" x="245.64675" xlink:href="#m8df6c5eca0" y="181.806875"/>
      </g>
     </g>
     <g id="line2d_12">
      <g>
       <use style="stroke:#000000;stroke-width:0.5;" x="245.64675" xlink:href="#ma660831f4b" y="13.006875"/>
      </g>
     </g>
     <g id="text_5">
      <!-- 0.20 -->
      <defs>
       <path d="M 19.1875 8.296875 
L 53.609375 8.296875 
L 53.609375 0 
L 7.328125 0 
L 7.328125 8.296875 
Q 12.9375 14.109375 22.625 23.890625 
Q 32.328125 33.6875 34.8125 36.53125 
Q 39.546875 41.84375 41.421875 45.53125 
Q 43.3125 49.21875 43.3125 52.78125 
Q 43.3125 58.59375 39.234375 62.25 
Q 35.15625 65.921875 28.609375 65.921875 
Q 23.96875 65.921875 18.8125 64.3125 
Q 13.671875 62.703125 7.8125 59.421875 
L 7.8125 69.390625 
Q 13.765625 71.78125 18.9375 73 
Q 24.125 74.21875 28.421875 74.21875 
Q 39.75 74.21875 46.484375 68.546875 
Q 53.21875 62.890625 53.21875 53.421875 
Q 53.21875 48.921875 51.53125 44.890625 
Q 49.859375 40.875 45.40625 35.40625 
Q 44.1875 33.984375 37.640625 27.21875 
Q 31.109375 20.453125 19.1875 8.296875 
" id="BitstreamVeraSans-Roman-32"/>
      </defs>
      <g transform="translate(232.287375 194.925)scale(0.12 -0.12)">
       <use xlink:href="#BitstreamVeraSans-Roman-30"/>
       <use x="63.623046875" xlink:href="#BitstreamVeraSans-Roman-2e"/>
       <use x="95.41015625" xlink:href="#BitstreamVeraSans-Roman-32"/>
       <use x="159.033203125" xlink:href="#BitstreamVeraSans-Roman-30"/>
      </g>
     </g>
    </g>
    <g id="xtick_6">
     <g id="line2d_13">
      <g>
       <use style="stroke:#000000;stroke-width:0.5;" x="297.57875" xlink:href="#m8df6c5eca0" y="181.806875"/>
      </g>
     </g>
     <g id="line2d_14">
      <g>
       <use style="stroke:#000000;stroke-width:0.5;" x="297.57875" xlink:href="#ma660831f4b" y="13.006875"/>
      </g>
     </g>
     <g id="text_6">
      <!-- 0.25 -->
      <g transform="translate(284.219375 194.925)scale(0.12 -0.12)">
       <use xlink:href="#BitstreamVeraSans-Roman-30"/>
       <use x="63.623046875" xlink:href="#BitstreamVeraSans-Roman-2e"/>
       <use x="95.41015625" xlink:href="#BitstreamVeraSans-Roman-32"/>
       <use x="159.033203125" xlink:href="#BitstreamVeraSans-Roman-35"/>
      </g>
     </g>
    </g>
    <g id="xtick_7">
     <g id="line2d_15">
      <g>
       <use style="stroke:#000000;stroke-width:0.5;" x="349.51075" xlink:href="#m8df6c5eca0" y="181.806875"/>
      </g>
     </g>
     <g id="line2d_16">
      <g>
       <use style="stroke:#000000;stroke-width:0.5;" x="349.51075" xlink:href="#ma660831f4b" y="13.006875"/>
      </g>
     </g>
     <g id="text_7">
      <!-- 0.30 -->
      <defs>
       <path d="M 40.578125 39.3125 
Q 47.65625 37.796875 51.625 33 
Q 55.609375 28.21875 55.609375 21.1875 
Q 55.609375 10.40625 48.1875 4.484375 
Q 40.765625 -1.421875 27.09375 -1.421875 
Q 22.515625 -1.421875 17.65625 -0.515625 
Q 12.796875 0.390625 7.625 2.203125 
L 7.625 11.71875 
Q 11.71875 9.328125 16.59375 8.109375 
Q 21.484375 6.890625 26.8125 6.890625 
Q 36.078125 6.890625 40.9375 10.546875 
Q 45.796875 14.203125 45.796875 21.1875 
Q 45.796875 27.640625 41.28125 31.265625 
Q 36.765625 34.90625 28.71875 34.90625 
L 20.21875 34.90625 
L 20.21875 43.015625 
L 29.109375 43.015625 
Q 36.375 43.015625 40.234375 45.921875 
Q 44.09375 48.828125 44.09375 54.296875 
Q 44.09375 59.90625 40.109375 62.90625 
Q 36.140625 65.921875 28.71875 65.921875 
Q 24.65625 65.921875 20.015625 65.03125 
Q 15.375 64.15625 9.8125 62.3125 
L 9.8125 71.09375 
Q 15.4375 72.65625 20.34375 73.4375 
Q 25.25 74.21875 29.59375 74.21875 
Q 40.828125 74.21875 47.359375 69.109375 
Q 53.90625 64.015625 53.90625 55.328125 
Q 53.90625 49.265625 50.4375 45.09375 
Q 46.96875 40.921875 40.578125 39.3125 
" id="BitstreamVeraSans-Roman-33"/>
      </defs>
      <g transform="translate(336.151375 194.925)scale(0.12 -0.12)">
       <use xlink:href="#BitstreamVeraSans-Roman-30"/>
       <use x="63.623046875" xlink:href="#BitstreamVeraSans-Roman-2e"/>
       <use x="95.41015625" xlink:href="#BitstreamVeraSans-Roman-33"/>
       <use x="159.033203125" xlink:href="#BitstreamVeraSans-Roman-30"/>
      </g>
     </g>
    </g>
    <g id="xtick_8">
     <g id="line2d_17">
      <g>
       <use style="stroke:#000000;stroke-width:0.5;" x="401.44275" xlink:href="#m8df6c5eca0" y="181.806875"/>
      </g>
     </g>
     <g id="line2d_18">
      <g>
       <use style="stroke:#000000;stroke-width:0.5;" x="401.44275" xlink:href="#ma660831f4b" y="13.006875"/>
      </g>
     </g>
     <g id="text_8">
      <!-- 0.35 -->
      <g transform="translate(388.083375 194.925)scale(0.12 -0.12)">
       <use xlink:href="#BitstreamVeraSans-Roman-30"/>
       <use x="63.623046875" xlink:href="#BitstreamVeraSans-Roman-2e"/>
       <use x="95.41015625" xlink:href="#BitstreamVeraSans-Roman-33"/>
       <use x="159.033203125" xlink:href="#BitstreamVeraSans-Roman-35"/>
      </g>
     </g>
    </g>
    <g id="xtick_9">
     <g id="line2d_19">
      <g>
       <use style="stroke:#000000;stroke-width:0.5;" x="453.37475" xlink:href="#m8df6c5eca0" y="181.806875"/>
      </g>
     </g>
     <g id="line2d_20">
      <g>
       <use style="stroke:#000000;stroke-width:0.5;" x="453.37475" xlink:href="#ma660831f4b" y="13.006875"/>
      </g>
     </g>
     <g id="text_9">
      <!-- 0.40 -->
      <defs>
       <path d="M 37.796875 64.3125 
L 12.890625 25.390625 
L 37.796875 25.390625 
z
M 35.203125 72.90625 
L 47.609375 72.90625 
L 47.609375 25.390625 
L 58.015625 25.390625 
L 58.015625 17.1875 
L 47.609375 17.1875 
L 47.609375 0 
L 37.796875 0 
L 37.796875 17.1875 
L 4.890625 17.1875 
L 4.890625 26.703125 
z
" id="BitstreamVeraSans-Roman-34"/>
      </defs>
      <g transform="translate(440.015375 194.925)scale(0.12 -0.12)">
       <use xlink:href="#BitstreamVeraSans-Roman-30"/>
       <use x="63.623046875" xlink:href="#BitstreamVeraSans-Roman-2e"/>
       <use x="95.41015625" xlink:href="#BitstreamVeraSans-Roman-34"/>
       <use x="159.033203125" xlink:href="#BitstreamVeraSans-Roman-30"/>
      </g>
     </g>
    </g>
   </g>
   <g id="matplotlib.axis_2">
    <g id="ytick_1">
     <g id="line2d_21">
      <defs>
       <path d="M 0 0 
L 4 0 
" id="mc055b6f742" style="stroke:#000000;stroke-width:0.5;"/>
      </defs>
      <g>
       <use style="stroke:#000000;stroke-width:0.5;" x="37.91875" xlink:href="#mc055b6f742" y="181.806875"/>
      </g>
     </g>
     <g id="line2d_22">
      <defs>
       <path d="M 0 0 
L -4 0 
" id="mdceb5dd30f" style="stroke:#000000;stroke-width:0.5;"/>
      </defs>
      <g>
       <use style="stroke:#000000;stroke-width:0.5;" x="453.37475" xlink:href="#mdceb5dd30f" y="181.806875"/>
      </g>
     </g>
     <g id="text_10">
      <!-- 0.00 -->
      <g transform="translate(7.2 185.118125)scale(0.12 -0.12)">
       <use xlink:href="#BitstreamVeraSans-Roman-30"/>
       <use x="63.623046875" xlink:href="#BitstreamVeraSans-Roman-2e"/>
       <use x="95.41015625" xlink:href="#BitstreamVeraSans-Roman-30"/>
       <use x="159.033203125" xlink:href="#BitstreamVeraSans-Roman-30"/>
      </g>
     </g>
    </g>
    <g id="ytick_2">
     <g id="line2d_23">
      <g>
       <use style="stroke:#000000;stroke-width:0.5;" x="37.91875" xlink:href="#mc055b6f742" y="148.046875"/>
      </g>
     </g>
     <g id="line2d_24">
      <g>
       <use style="stroke:#000000;stroke-width:0.5;" x="453.37475" xlink:href="#mdceb5dd30f" y="148.046875"/>
      </g>
     </g>
     <g id="text_11">
      <!-- 0.02 -->
      <g transform="translate(7.2 151.358125)scale(0.12 -0.12)">
       <use xlink:href="#BitstreamVeraSans-Roman-30"/>
       <use x="63.623046875" xlink:href="#BitstreamVeraSans-Roman-2e"/>
       <use x="95.41015625" xlink:href="#BitstreamVeraSans-Roman-30"/>
       <use x="159.033203125" xlink:href="#BitstreamVeraSans-Roman-32"/>
      </g>
     </g>
    </g>
    <g id="ytick_3">
     <g id="line2d_25">
      <g>
       <use style="stroke:#000000;stroke-width:0.5;" x="37.91875" xlink:href="#mc055b6f742" y="114.286875"/>
      </g>
     </g>
     <g id="line2d_26">
      <g>
       <use style="stroke:#000000;stroke-width:0.5;" x="453.37475" xlink:href="#mdceb5dd30f" y="114.286875"/>
      </g>
     </g>
     <g id="text_12">
      <!-- 0.04 -->
      <g transform="translate(7.2 117.598125)scale(0.12 -0.12)">
       <use xlink:href="#BitstreamVeraSans-Roman-30"/>
       <use x="63.623046875" xlink:href="#BitstreamVeraSans-Roman-2e"/>
       <use x="95.41015625" xlink:href="#BitstreamVeraSans-Roman-30"/>
       <use x="159.033203125" xlink:href="#BitstreamVeraSans-Roman-34"/>
      </g>
     </g>
    </g>
    <g id="ytick_4">
     <g id="line2d_27">
      <g>
       <use style="stroke:#000000;stroke-width:0.5;" x="37.91875" xlink:href="#mc055b6f742" y="80.526875"/>
      </g>
     </g>
     <g id="line2d_28">
      <g>
       <use style="stroke:#000000;stroke-width:0.5;" x="453.37475" xlink:href="#mdceb5dd30f" y="80.526875"/>
      </g>
     </g>
     <g id="text_13">
      <!-- 0.06 -->
      <defs>
       <path d="M 33.015625 40.375 
Q 26.375 40.375 22.484375 35.828125 
Q 18.609375 31.296875 18.609375 23.390625 
Q 18.609375 15.53125 22.484375 10.953125 
Q 26.375 6.390625 33.015625 6.390625 
Q 39.65625 6.390625 43.53125 10.953125 
Q 47.40625 15.53125 47.40625 23.390625 
Q 47.40625 31.296875 43.53125 35.828125 
Q 39.65625 40.375 33.015625 40.375 
M 52.59375 71.296875 
L 52.59375 62.3125 
Q 48.875 64.0625 45.09375 64.984375 
Q 41.3125 65.921875 37.59375 65.921875 
Q 27.828125 65.921875 22.671875 59.328125 
Q 17.53125 52.734375 16.796875 39.40625 
Q 19.671875 43.65625 24.015625 45.921875 
Q 28.375 48.1875 33.59375 48.1875 
Q 44.578125 48.1875 50.953125 41.515625 
Q 57.328125 34.859375 57.328125 23.390625 
Q 57.328125 12.15625 50.6875 5.359375 
Q 44.046875 -1.421875 33.015625 -1.421875 
Q 20.359375 -1.421875 13.671875 8.265625 
Q 6.984375 17.96875 6.984375 36.375 
Q 6.984375 53.65625 15.1875 63.9375 
Q 23.390625 74.21875 37.203125 74.21875 
Q 40.921875 74.21875 44.703125 73.484375 
Q 48.484375 72.75 52.59375 71.296875 
" id="BitstreamVeraSans-Roman-36"/>
      </defs>
      <g transform="translate(7.2 83.838125)scale(0.12 -0.12)">
       <use xlink:href="#BitstreamVeraSans-Roman-30"/>
       <use x="63.623046875" xlink:href="#BitstreamVeraSans-Roman-2e"/>
       <use x="95.41015625" xlink:href="#BitstreamVeraSans-Roman-30"/>
       <use x="159.033203125" xlink:href="#BitstreamVeraSans-Roman-36"/>
      </g>
     </g>
    </g>
    <g id="ytick_5">
     <g id="line2d_29">
      <g>
       <use style="stroke:#000000;stroke-width:0.5;" x="37.91875" xlink:href="#mc055b6f742" y="46.766875"/>
      </g>
     </g>
     <g id="line2d_30">
      <g>
       <use style="stroke:#000000;stroke-width:0.5;" x="453.37475" xlink:href="#mdceb5dd30f" y="46.766875"/>
      </g>
     </g>
     <g id="text_14">
      <!-- 0.08 -->
      <defs>
       <path d="M 31.78125 34.625 
Q 24.75 34.625 20.71875 30.859375 
Q 16.703125 27.09375 16.703125 20.515625 
Q 16.703125 13.921875 20.71875 10.15625 
Q 24.75 6.390625 31.78125 6.390625 
Q 38.8125 6.390625 42.859375 10.171875 
Q 46.921875 13.96875 46.921875 20.515625 
Q 46.921875 27.09375 42.890625 30.859375 
Q 38.875 34.625 31.78125 34.625 
M 21.921875 38.8125 
Q 15.578125 40.375 12.03125 44.71875 
Q 8.5 49.078125 8.5 55.328125 
Q 8.5 64.0625 14.71875 69.140625 
Q 20.953125 74.21875 31.78125 74.21875 
Q 42.671875 74.21875 48.875 69.140625 
Q 55.078125 64.0625 55.078125 55.328125 
Q 55.078125 49.078125 51.53125 44.71875 
Q 48 40.375 41.703125 38.8125 
Q 48.828125 37.15625 52.796875 32.3125 
Q 56.78125 27.484375 56.78125 20.515625 
Q 56.78125 9.90625 50.3125 4.234375 
Q 43.84375 -1.421875 31.78125 -1.421875 
Q 19.734375 -1.421875 13.25 4.234375 
Q 6.78125 9.90625 6.78125 20.515625 
Q 6.78125 27.484375 10.78125 32.3125 
Q 14.796875 37.15625 21.921875 38.8125 
M 18.3125 54.390625 
Q 18.3125 48.734375 21.84375 45.5625 
Q 25.390625 42.390625 31.78125 42.390625 
Q 38.140625 42.390625 41.71875 45.5625 
Q 45.3125 48.734375 45.3125 54.390625 
Q 45.3125 60.0625 41.71875 63.234375 
Q 38.140625 66.40625 31.78125 66.40625 
Q 25.390625 66.40625 21.84375 63.234375 
Q 18.3125 60.0625 18.3125 54.390625 
" id="BitstreamVeraSans-Roman-38"/>
      </defs>
      <g transform="translate(7.2 50.078125)scale(0.12 -0.12)">
       <use xlink:href="#BitstreamVeraSans-Roman-30"/>
       <use x="63.623046875" xlink:href="#BitstreamVeraSans-Roman-2e"/>
       <use x="95.41015625" xlink:href="#BitstreamVeraSans-Roman-30"/>
       <use x="159.033203125" xlink:href="#BitstreamVeraSans-Roman-38"/>
      </g>
     </g>
    </g>
    <g id="ytick_6">
     <g id="line2d_31">
      <g>
       <use style="stroke:#000000;stroke-width:0.5;" x="37.91875" xlink:href="#mc055b6f742" y="13.006875"/>
      </g>
     </g>
     <g id="line2d_32">
      <g>
       <use style="stroke:#000000;stroke-width:0.5;" x="453.37475" xlink:href="#mdceb5dd30f" y="13.006875"/>
      </g>
     </g>
     <g id="text_15">
      <!-- 0.10 -->
      <g transform="translate(7.2 16.318125)scale(0.12 -0.12)">
       <use xlink:href="#BitstreamVeraSans-Roman-30"/>
       <use x="63.623046875" xlink:href="#BitstreamVeraSans-Roman-2e"/>
       <use x="95.41015625" xlink:href="#BitstreamVeraSans-Roman-31"/>
       <use x="159.033203125" xlink:href="#BitstreamVeraSans-Roman-30"/>
      </g>
     </g>
    </g>
   </g>
  </g>
  <g id="axes_2">
   <g id="patch_7">
    <path clip-path="url(#pb754bcc663)" d="M 479.34075 181.806875 
L 479.34075 170.553542 
L 479.34075 24.260208 
L 479.34075 13.006875 
L 487.78075 13.006875 
L 487.78075 24.260208 
L 487.78075 170.553542 
L 487.78075 181.806875 
z
" style="fill:#ffffff;stroke:#ffffff;stroke-linejoin:miter;stroke-width:0.01;"/>
   </g>
   <g id="QuadMesh_1">
    <path clip-path="url(#pb754bcc663)" d="M 479.34075 181.806875 
L 487.78075 181.806875 
L 487.78075 170.553542 
L 479.34075 170.553542 
L 479.34075 181.806875 
" style="fill:#0000a4;"/>
    <path clip-path="url(#pb754bcc663)" d="M 479.34075 170.553542 
L 487.78075 170.553542 
L 487.78075 159.300208 
L 479.34075 159.300208 
L 479.34075 170.553542 
" style="fill:#0000f1;"/>
    <path clip-path="url(#pb754bcc663)" d="M 479.34075 159.300208 
L 487.78075 159.300208 
L 487.78075 148.046875 
L 479.34075 148.046875 
L 479.34075 159.300208 
" style="fill:#0028ff;"/>
    <path clip-path="url(#pb754bcc663)" d="M 479.34075 148.046875 
L 487.78075 148.046875 
L 487.78075 136.793542 
L 479.34075 136.793542 
L 479.34075 148.046875 
" style="fill:#006cff;"/>
    <path clip-path="url(#pb754bcc663)" d="M 479.34075 136.793542 
L 487.78075 136.793542 
L 487.78075 125.540208 
L 479.34075 125.540208 
L 479.34075 136.793542 
" style="fill:#00b0ff;"/>
    <path clip-path="url(#pb754bcc663)" d="M 479.34075 125.540208 
L 487.78075 125.540208 
L 487.78075 114.286875 
L 479.34075 114.286875 
L 479.34075 125.540208 
" style="fill:#0cf4eb;"/>
    <path clip-path="url(#pb754bcc663)" d="M 479.34075 114.286875 
L 487.78075 114.286875 
L 487.78075 103.033542 
L 479.34075 103.033542 
L 479.34075 114.286875 
" style="fill:#43ffb4;"/>
    <path clip-path="url(#pb754bcc663)" d="M 479.34075 103.033542 
L 487.78075 103.033542 
L 487.78075 91.780208 
L 479.34075 91.780208 
L 479.34075 103.033542 
" style="fill:#7aff7d;"/>
    <path clip-path="url(#pb754bcc663)" d="M 479.34075 91.780208 
L 487.78075 91.780208 
L 487.78075 80.526875 
L 479.34075 80.526875 
L 479.34075 91.780208 
" style="fill:#b4ff43;"/>
    <path clip-path="url(#pb754bcc663)" d="M 479.34075 80.526875 
L 487.78075 80.526875 
L 487.78075 69.273542 
L 479.34075 69.273542 
L 479.34075 80.526875 
" style="fill:#ebff0c;"/>
    <path clip-path="url(#pb754bcc663)" d="M 479.34075 69.273542 
L 487.78075 69.273542 
L 487.78075 58.020208 
L 479.34075 58.020208 
L 479.34075 69.273542 
" style="fill:#ffc400;"/>
    <path clip-path="url(#pb754bcc663)" d="M 479.34075 58.020208 
L 487.78075 58.020208 
L 487.78075 46.766875 
L 479.34075 46.766875 
L 479.34075 58.020208 
" style="fill:#ff8600;"/>
    <path clip-path="url(#pb754bcc663)" d="M 479.34075 46.766875 
L 487.78075 46.766875 
L 487.78075 35.513542 
L 479.34075 35.513542 
L 479.34075 46.766875 
" style="fill:#ff4700;"/>
    <path clip-path="url(#pb754bcc663)" d="M 479.34075 35.513542 
L 487.78075 35.513542 
L 487.78075 24.260208 
L 479.34075 24.260208 
L 479.34075 35.513542 
" style="fill:#f10800;"/>
    <path clip-path="url(#pb754bcc663)" d="M 479.34075 24.260208 
L 487.78075 24.260208 
L 487.78075 13.006875 
L 479.34075 13.006875 
L 479.34075 24.260208 
" style="fill:#a40000;"/>
   </g>
   <g id="patch_8">
    <path d="M 479.34075 181.806875 
L 479.34075 170.553542 
L 479.34075 24.260208 
L 479.34075 13.006875 
L 487.78075 13.006875 
L 487.78075 24.260208 
L 487.78075 170.553542 
L 487.78075 181.806875 
z
" style="fill:none;stroke:#000000;stroke-linejoin:miter;"/>
   </g>
   <g id="matplotlib.axis_3"/>
   <g id="matplotlib.axis_4">
    <g id="ytick_7">
     <g id="line2d_33">
      <g>
       <use style="stroke:#000000;stroke-width:0.5;" x="487.78075" xlink:href="#mdceb5dd30f" y="181.806875"/>
      </g>
     </g>
     <g id="text_16">
      <!-- 0.20 -->
      <g transform="translate(491.78075 185.118125)scale(0.12 -0.12)">
       <use xlink:href="#BitstreamVeraSans-Roman-30"/>
       <use x="63.623046875" xlink:href="#BitstreamVeraSans-Roman-2e"/>
       <use x="95.41015625" xlink:href="#BitstreamVeraSans-Roman-32"/>
       <use x="159.033203125" xlink:href="#BitstreamVeraSans-Roman-30"/>
      </g>
     </g>
    </g>
    <g id="ytick_8">
     <g id="line2d_34">
      <g>
       <use style="stroke:#000000;stroke-width:0.5;" x="487.78075" xlink:href="#mdceb5dd30f" y="159.300208333"/>
      </g>
     </g>
     <g id="text_17">
      <!-- 0.24 -->
      <g transform="translate(491.78075 162.611458333)scale(0.12 -0.12)">
       <use xlink:href="#BitstreamVeraSans-Roman-30"/>
       <use x="63.623046875" xlink:href="#BitstreamVeraSans-Roman-2e"/>
       <use x="95.41015625" xlink:href="#BitstreamVeraSans-Roman-32"/>
       <use x="159.033203125" xlink:href="#BitstreamVeraSans-Roman-34"/>
      </g>
     </g>
    </g>
    <g id="ytick_9">
     <g id="line2d_35">
      <g>
       <use style="stroke:#000000;stroke-width:0.5;" x="487.78075" xlink:href="#mdceb5dd30f" y="136.793541667"/>
      </g>
     </g>
     <g id="text_18">
      <!-- 0.28 -->
      <g transform="translate(491.78075 140.104791667)scale(0.12 -0.12)">
       <use xlink:href="#BitstreamVeraSans-Roman-30"/>
       <use x="63.623046875" xlink:href="#BitstreamVeraSans-Roman-2e"/>
       <use x="95.41015625" xlink:href="#BitstreamVeraSans-Roman-32"/>
       <use x="159.033203125" xlink:href="#BitstreamVeraSans-Roman-38"/>
      </g>
     </g>
    </g>
    <g id="ytick_10">
     <g id="line2d_36">
      <g>
       <use style="stroke:#000000;stroke-width:0.5;" x="487.78075" xlink:href="#mdceb5dd30f" y="114.286875"/>
      </g>
     </g>
     <g id="text_19">
      <!-- 0.32 -->
      <g transform="translate(491.78075 117.598125)scale(0.12 -0.12)">
       <use xlink:href="#BitstreamVeraSans-Roman-30"/>
       <use x="63.623046875" xlink:href="#BitstreamVeraSans-Roman-2e"/>
       <use x="95.41015625" xlink:href="#BitstreamVeraSans-Roman-33"/>
       <use x="159.033203125" xlink:href="#BitstreamVeraSans-Roman-32"/>
      </g>
     </g>
    </g>
    <g id="ytick_11">
     <g id="line2d_37">
      <g>
       <use style="stroke:#000000;stroke-width:0.5;" x="487.78075" xlink:href="#mdceb5dd30f" y="91.7802083333"/>
      </g>
     </g>
     <g id="text_20">
      <!-- 0.36 -->
      <g transform="translate(491.78075 95.0914583333)scale(0.12 -0.12)">
       <use xlink:href="#BitstreamVeraSans-Roman-30"/>
       <use x="63.623046875" xlink:href="#BitstreamVeraSans-Roman-2e"/>
       <use x="95.41015625" xlink:href="#BitstreamVeraSans-Roman-33"/>
       <use x="159.033203125" xlink:href="#BitstreamVeraSans-Roman-36"/>
      </g>
     </g>
    </g>
    <g id="ytick_12">
     <g id="line2d_38">
      <g>
       <use style="stroke:#000000;stroke-width:0.5;" x="487.78075" xlink:href="#mdceb5dd30f" y="69.2735416667"/>
      </g>
     </g>
     <g id="text_21">
      <!-- 0.40 -->
      <g transform="translate(491.78075 72.5847916667)scale(0.12 -0.12)">
       <use xlink:href="#BitstreamVeraSans-Roman-30"/>
       <use x="63.623046875" xlink:href="#BitstreamVeraSans-Roman-2e"/>
       <use x="95.41015625" xlink:href="#BitstreamVeraSans-Roman-34"/>
       <use x="159.033203125" xlink:href="#BitstreamVeraSans-Roman-30"/>
      </g>
     </g>
    </g>
    <g id="ytick_13">
     <g id="line2d_39">
      <g>
       <use style="stroke:#000000;stroke-width:0.5;" x="487.78075" xlink:href="#mdceb5dd30f" y="46.766875"/>
      </g>
     </g>
     <g id="text_22">
      <!-- 0.44 -->
      <g transform="translate(491.78075 50.078125)scale(0.12 -0.12)">
       <use xlink:href="#BitstreamVeraSans-Roman-30"/>
       <use x="63.623046875" xlink:href="#BitstreamVeraSans-Roman-2e"/>
       <use x="95.41015625" xlink:href="#BitstreamVeraSans-Roman-34"/>
       <use x="159.033203125" xlink:href="#BitstreamVeraSans-Roman-34"/>
      </g>
     </g>
    </g>
    <g id="ytick_14">
     <g id="line2d_40">
      <g>
       <use style="stroke:#000000;stroke-width:0.5;" x="487.78075" xlink:href="#mdceb5dd30f" y="24.2602083333"/>
      </g>
     </g>
     <g id="text_23">
      <!-- 0.48 -->
      <g transform="translate(491.78075 27.5714583333)scale(0.12 -0.12)">
       <use xlink:href="#BitstreamVeraSans-Roman-30"/>
       <use x="63.623046875" xlink:href="#BitstreamVeraSans-Roman-2e"/>
       <use x="95.41015625" xlink:href="#BitstreamVeraSans-Roman-34"/>
       <use x="159.033203125" xlink:href="#BitstreamVeraSans-Roman-38"/>
      </g>
     </g>
    </g>
   </g>
  </g>
 </g>
 <defs>
  <clipPath id="p88f1d83c96">
   <rect height="168.8" width="415.456" x="37.91875" y="13.006875"/>
  </clipPath>
  <clipPath id="pb754bcc663">
   <rect height="168.8" width="8.44" x="479.34075" y="13.006875"/>
  </clipPath>
 </defs>
</svg>
